# xmcd
#
# Track frame offsets:
#	150
#	16160
#	36562
#	54607
#	68895
#	87765
#	109120
#	131175
#	150477
#	171940
#	189185
#	207282
#	228852
#	248155
#	296835
#	315527
#
# Disc length: 4491 seconds
#
# Revision: 1
# Processed by: cddbd v1.5.1PL0 Copyright (c) Steve Scherf et al.
# Submitted via: CDex 1.50Beta5
#
DISCID=dc118910
DTITLE=イ・プー - ベスト〜浪漫大全
DYEAR=1996
DGENRE=Rock
TTITLE0=愛のルネッサンス
TTITLE1=君をこの胸に
TTITLE2=ブーメラン
TTITLE3=エレオノーラの想い出
TTITLE4=ひと吹きの夢
TTITLE5=君と僕の日々
TTITLE6=ロマンのかけら
TTITLE7=ガッビア
TTITLE8=永遠に向かって
TTITLE9=あなた色の歌
TTITLE10=未来への約束
TTITLE11=南の星
TTITLE12=夢紡ぐ君
TTITLE13=パルシファル
TTITLE14=聖夜の雫
TTITLE15=オアシス讃歌
EXTD=
EXTT0=
EXTT1=
EXTT2=
EXTT3=
EXTT4=
EXTT5=
EXTT6=
EXTT7=
EXTT8=
EXTT9=
EXTT10=
EXTT11=
EXTT12=
EXTT13=
EXTT14=
EXTT15=
PLAYORDER=
